<?xml version="1.0" standalone="no"?>
<!DOCTYPE svg PUBLIC "-//W3C//DTD SVG 20010904//EN"
 "http://www.w3.org/TR/2001/REC-SVG-20010904/DTD/svg10.dtd">
<svg version="1.0" xmlns="http://www.w3.org/2000/svg"
 width="1083.000000pt" height="625.000000pt" viewBox="0 0 1083.000000 625.000000"
 preserveAspectRatio="xMidYMid meet">

<g transform="translate(0.000000,625.000000) scale(0.100000,-0.100000)"
fill="#000000" stroke="none">
<path d="M623 3703 l-23 -4 0 -570 0 -569 100 0 100 0 0 345 c0 190 3 345 8
345 4 -1 54 -80 112 -177 128 -214 168 -263 216 -263 49 0 83 40 204 243 69
116 110 176 120 174 13 -2 15 -49 18 -345 1 -188 6 -342 10 -342 4 1 45 11 92
24 l85 23 0 553 0 552 -23 9 c-42 16 -97 10 -133 -14 -19 -12 -53 -54 -75 -92
-129 -219 -277 -465 -288 -480 -11 -15 -25 5 -113 152 -55 92 -124 211 -153
263 -90 164 -138 196 -257 173z"/>
<path d="M3133 3703 c-10 -4 -13 -128 -13 -574 l0 -569 95 0 95 0 2 202 3 202
30 8 c17 5 73 11 125 14 88 6 97 5 123 -16 15 -12 36 -38 46 -58 23 -45 75
-181 92 -241 16 -56 67 -108 114 -117 37 -7 111 1 132 14 13 8 -23 128 -91
305 -35 91 -33 127 10 217 45 94 64 174 64 272 0 115 -15 172 -59 218 -49 52
-167 107 -256 120 -70 10 -489 13 -512 3z m567 -211 c46 -23 70 -72 70 -145 0
-75 -20 -121 -62 -144 -28 -15 -58 -18 -208 -18 l-175 0 -3 150 c-1 82 0 155
2 162 4 10 45 13 173 13 140 0 174 -3 203 -18z"/>
<path d="M4945 3701 c-62 -16 -115 -53 -172 -118 -32 -37 -120 -131 -195 -208
l-138 -140 0 228 0 227 -95 0 -95 0 0 -565 0 -565 94 0 93 0 5 143 c5 130 8
151 42 256 l38 113 31 -6 c17 -3 31 -7 32 -9 1 -1 45 -63 97 -137 53 -74 117
-170 143 -212 81 -134 151 -171 285 -148 48 8 68 15 63 23 -4 7 -105 151 -225
321 -120 170 -218 313 -218 318 0 5 95 111 211 235 129 137 207 229 202 234
-13 13 -161 20 -198 10z"/>
<path d="M8108 3699 c-17 -9 -18 -47 -18 -569 l0 -560 100 0 100 0 2 363 3
362 191 -255 c105 -140 216 -292 248 -337 94 -134 147 -167 236 -143 l40 11 0
564 0 565 -100 0 -100 0 0 -365 c0 -201 -3 -365 -7 -365 -5 0 -96 120 -203
266 -107 147 -222 303 -255 347 -73 100 -111 127 -174 127 -25 0 -54 -5 -63
-11z"/>
<path d="M9626 3699 c-73 -10 -158 -43 -204 -79 -44 -35 -88 -106 -105 -167
-21 -79 -33 -480 -17 -578 28 -177 106 -262 280 -306 70 -18 356 -18 420 0 63
17 140 70 174 120 47 68 56 123 56 348 l0 203 -223 0 c-123 0 -226 -2 -228 -4
-2 -2 -3 -45 -1 -95 l3 -91 120 0 119 0 0 -110 c0 -170 -11 -178 -236 -187
-133 -5 -145 -4 -188 17 -33 16 -53 34 -69 64 -21 39 -22 52 -22 276 0 257 5
286 57 346 56 64 169 78 383 48 263 -36 266 -35 212 73 -19 37 -43 75 -53 85
-38 33 -339 57 -478 37z"/>
<path d="M2309 3675 c-42 -28 -31 -1 -281 -668 -88 -235 -158 -430 -155 -433
9 -9 79 -24 115 -24 45 0 98 26 122 60 11 16 28 61 39 102 39 159 58 171 250
166 107 -3 143 -7 169 -21 37 -20 66 -74 77 -147 10 -59 38 -113 70 -134 36
-24 120 -30 172 -14 l41 13 -117 310 c-196 516 -281 729 -299 755 -44 61 -141
78 -203 35z m149 -443 l50 -152 -109 0 c-60 0 -109 3 -109 8 -1 4 18 71 42
149 28 95 47 144 58 146 8 2 16 3 17 2 1 0 24 -69 51 -153z"/>
<path d="M5410 3135 l0 -565 400 0 400 0 0 95 0 95 -292 2 -293 3 0 140 0 140
248 3 247 2 0 100 0 100 -245 0 -245 0 0 130 0 130 290 0 290 0 0 95 0 95
-400 0 -400 0 0 -565z"/>
<path d="M6400 3658 c0 -24 3 -67 6 -95 l7 -53 183 0 184 0 0 -470 0 -470 110
0 110 0 0 470 0 470 175 0 175 0 0 95 0 95 -475 0 -475 0 0 -42z"/>
<path d="M7582 3133 l3 -568 108 -3 107 -3 0 571 0 570 -110 0 -110 0 2 -567z"/>
</g>
</svg>
