<?xml version="1.0" encoding="UTF-8" standalone="no"?>
<svg
   xmlns:dc="http://purl.org/dc/elements/1.1/"
   xmlns:cc="http://creativecommons.org/ns#"
   xmlns:rdf="http://www.w3.org/1999/02/22-rdf-syntax-ns#"
   xmlns:svg="http://www.w3.org/2000/svg"
   xmlns="http://www.w3.org/2000/svg"
   xmlns:sodipodi="http://sodipodi.sourceforge.net/DTD/sodipodi-0.dtd"
   xmlns:inkscape="http://www.inkscape.org/namespaces/inkscape"
   viewBox="0 0 488 276.87"
   version="1.1"
   id="svg87"
   sodipodi:docname="Under construction-bro.svg"
   width="488"
   height="276.87"
   inkscape:version="1.0 (9f2f71dc58, 2020-08-02)">
  <metadata
     id="metadata93">
    <rdf:RDF>
      <cc:Work
         rdf:about="">
        <dc:format>image/svg+xml</dc:format>
        <dc:type
           rdf:resource="http://purl.org/dc/dcmitype/StillImage" />
        <dc:title></dc:title>
      </cc:Work>
    </rdf:RDF>
  </metadata>
  <defs
     id="defs91" />
  <sodipodi:namedview
     pagecolor="#ffffff"
     bordercolor="#666666"
     borderopacity="1"
     objecttolerance="10"
     gridtolerance="10"
     guidetolerance="10"
     inkscape:pageopacity="0"
     inkscape:pageshadow="2"
     inkscape:window-width="1600"
     inkscape:window-height="833"
     id="namedview89"
     showgrid="false"
     fit-margin-top="0"
     fit-margin-left="0"
     fit-margin-right="0"
     fit-margin-bottom="0"
     inkscape:zoom="0.40800061"
     inkscape:cx="249.26098"
     inkscape:cy="153.38057"
     inkscape:window-x="0"
     inkscape:window-y="30"
     inkscape:window-maximized="1"
     inkscape:current-layer="svg87" />
  <g
     id="freepik--Device--inject-102"
     transform="translate(-9.5,-191.97)">
    <path
       d="m 66.26,192.47 h 375 a 10.46,10.46 0 0 1 10.46,10.46 v 246.5 H 55.81 V 202.92 a 10.46,10.46 0 0 1 10.45,-10.45 z"
       style="fill:#ffffff;stroke:#263238;stroke-linecap:round;stroke-linejoin:round"
       id="path2" />
    <rect
       x="71.870003"
       y="212.53999"
       width="363.76001"
       height="205.57001"
       style="fill:none;stroke:#263238;stroke-linecap:round;stroke-linejoin:round"
       id="rect4" />
    <rect
       x="118.62"
       y="437.06"
       width="272.07001"
       height="13.4"
       style="fill:#263238;stroke:#263238;stroke-linecap:round;stroke-linejoin:round"
       id="rect6" />
    <rect
       x="118.62"
       y="443.51001"
       width="272.07001"
       height="6.9499998"
       style="fill:#ffffff;stroke:#263238;stroke-linecap:round;stroke-linejoin:round"
       id="rect8" />
    <path
       d="m 23.79,458.4 c 0,0 4.47,5.47 17.88,9.93 h 426 c 0,0 9.93,-2.48 14.4,-9.43 z"
       style="fill:#263238;stroke:#263238;stroke-linecap:round;stroke-linejoin:round"
       id="path10" />
    <rect
       x="22.889999"
       y="448.62"
       width="460.10999"
       height="10.44"
       rx="1.89"
       style="fill:#ffffff;stroke:#263238;stroke-linecap:round;stroke-linejoin:round"
       id="rect12" />
    <path
       d="m 257.14,200.24 a 3.48,3.48 0 1 0 -3.48,3.47 3.48,3.48 0 0 0 3.48,-3.47 z"
       style="fill:#ffffff;stroke:#263238;stroke-linecap:round;stroke-linejoin:round"
       id="path14" />
    <line
       x1="10"
       y1="468.32999"
       x2="497"
       y2="468.32999"
       style="fill:none;stroke:#263238;stroke-linecap:round;stroke-linejoin:round"
       id="line16" />
  </g>
  <g
     id="freepik--Sign--inject-102"
     transform="translate(-9.5,-191.97)">
    <path
       d="m 285.22,251.12 a 10.43,10.43 0 0 0 2.87,-9.38 l -6.55,6.54 a 2,2 0 0 1 -2.8,0 l -5.44,-5.44 a 2,2 0 0 1 0,-2.8 l 6.54,-6.55 a 10.45,10.45 0 0 0 -11.73,14 l -16.9,16.51 -1.63,-1.63 2.66,-2.66 a 0.74,0.74 0 0 0 0,-1 l -2.06,-2.05 a 0.72,0.72 0 0 0 -1,0 l -1,1 -2.23,-2.22 0.86,-0.86 a 1,1 0 0 0 0,-1.37 l -18.44,-18.44 a 4.73,4.73 0 0 0 -6.69,0 l -1.88,1.88 a 4.73,4.73 0 0 0 0,6.69 l 18.44,18.44 a 1,1 0 0 0 1.37,0 l 0.85,-0.86 2.23,2.23 -1,1 a 0.72,0.72 0 0 0 0,1 l 2,2.06 a 0.74,0.74 0 0 0 1,0 l 2.66,-2.66 1.6,1.6 -14,13.67 a 10.44,10.44 0 0 0 -14,11.73 l 6.55,-6.54 a 2,2 0 0 1 2.8,0 l 5.44,5.44 a 2,2 0 0 1 0,2.8 l -6.54,6.55 a 10.45,10.45 0 0 0 11.73,-14 l 14,-13.66 19.1,19.1 a 3.92,3.92 0 0 0 0.88,4.18 l 4.61,4.61 5.53,-5.53 -4.61,-4.61 a 3.92,3.92 0 0 0 -4.18,-0.88 L 257.16,270 274.05,253.51 a 10.45,10.45 0 0 0 11.17,-2.39 z"
       style="fill:#263238;stroke:#263238;stroke-linecap:round;stroke-linejoin:round"
       id="path19" />
    <path
       d="m 226.33,326.59 c 0,2 0.79,3.17 2.58,3.17 1.79,0 2.54,-1.19 2.54,-3.17 v -16.81 h 2.3 v 16.69 c 0,3.33 -1.54,5.56 -4.94,5.56 -3.4,0 -4.9,-2.23 -4.9,-5.56 v -16.69 h 2.42 z"
       style="fill:#263238"
       id="path21" />
    <path
       d="m 238.33,331.78 h -2.2 v -22 h 3.11 l 5.09,15.9 v -15.9 h 2.17 v 22 H 244 L 238.33,314 Z"
       style="fill:#263238"
       id="path23" />
    <path
       d="m 254.17,309.78 c 3.42,0 5,2.08 5,5.47 v 11.09 c 0,3.36 -1.57,5.44 -5,5.44 H 249 v -22 z m 0,19.76 c 1.76,0 2.61,-1.09 2.61,-3.11 v -11.31 c 0,-2 -0.85,-3.11 -2.64,-3.11 h -2.64 v 17.53 z"
       style="fill:#263238"
       id="path25" />
    <path
       d="m 269.28,319.52 v 2.2 h -5.38 v 7.82 h 6.6 v 2.24 h -9.05 v -22 h 9.05 V 312 h -6.6 v 7.51 z"
       style="fill:#263238"
       id="path27" />
    <path
       d="m 277.66,309.78 c 3.46,0 4.9,1.76 4.9,5 v 1.79 c 0,2.42 -0.85,3.93 -2.73,4.53 2,0.59 2.76,2.23 2.76,4.58 v 3.43 a 5.64,5.64 0 0 0 0.44,2.64 h -2.48 a 5.83,5.83 0 0 1 -0.41,-2.68 v -3.45 c 0,-2.48 -1.16,-3.27 -3.2,-3.27 h -1.73 v 9.4 h -2.45 v -22 z M 277,320.15 c 2,0 3.11,-0.63 3.11,-3 V 315 c 0,-2 -0.72,-3 -2.54,-3 h -2.39 v 8.14 z"
       style="fill:#263238"
       id="path29" />
    <path
       d="m 195.28,360 v 2 H 193 v -2.11 c 0,-2 -0.79,-3.17 -2.58,-3.17 -1.79,0 -2.58,1.19 -2.58,3.17 v 11.61 c 0,2 0.82,3.17 2.58,3.17 1.76,0 2.58,-1.19 2.58,-3.17 v -2.86 h 2.32 v 2.73 c 0,3.33 -1.57,5.53 -5,5.53 -3.43,0 -4.93,-2.2 -4.93,-5.53 V 360 c 0,-3.33 1.57,-5.53 4.93,-5.53 3.36,0 4.96,2.2 4.96,5.53 z"
       style="fill:#263238"
       id="path31" />
    <path
       d="m 197.32,360 c 0,-3.36 1.67,-5.53 5,-5.53 3.33,0 5.06,2.17 5.06,5.53 v 11.37 c 0,3.33 -1.67,5.53 -5.06,5.53 -3.39,0 -5,-2.2 -5,-5.53 z m 2.42,11.5 c 0,2 0.85,3.17 2.61,3.17 1.76,0 2.61,-1.16 2.61,-3.17 v -11.63 c 0,-2 -0.82,-3.17 -2.61,-3.17 -1.79,0 -2.61,1.19 -2.61,3.17 z"
       style="fill:#263238"
       id="path33" />
    <path
       d="m 211.9,376.68 h -2.2 v -22 h 3.11 l 5.09,15.9 v -15.9 h 2.17 v 22 h -2.55 L 211.9,358.9 Z"
       style="fill:#263238"
       id="path35" />
    <path
       d="m 232.1,360 v 0.59 h -2.33 v -0.72 c 0,-2 -0.75,-3.14 -2.51,-3.14 -1.76,0 -2.51,1.16 -2.51,3.11 0,4.93 7.38,5.4 7.38,11.59 0,3.33 -1.6,5.5 -5,5.5 -3.4,0 -4.93,-2.17 -4.93,-5.5 v -1.25 h 2.3 v 1.38 c 0,2 0.81,3.14 2.57,3.14 1.76,0 2.58,-1.16 2.58,-3.14 0,-4.9 -7.35,-5.37 -7.35,-11.56 0,-3.4 1.57,-5.5 4.87,-5.5 3.3,0 4.93,2.14 4.93,5.5 z"
       style="fill:#263238"
       id="path37" />
    <path
       d="m 237.47,376.68 v -19.76 h -4.06 v -2.23 H 244 v 2.23 h -4.05 v 19.76 z"
       style="fill:#263238"
       id="path39" />
    <path
       d="m 250.57,354.69 c 3.45,0 4.9,1.76 4.9,5 v 1.8 c 0,2.41 -0.85,3.92 -2.73,4.52 2,0.6 2.76,2.23 2.76,4.59 v 3.4 a 5.47,5.47 0 0 0 0.44,2.64 h -2.48 a 5.65,5.65 0 0 1 -0.41,-2.67 v -3.46 c 0,-2.48 -1.16,-3.26 -3.21,-3.26 h -1.72 v 9.39 h -2.45 v -22 z m -0.63,10.37 c 1.95,0 3.11,-0.63 3.11,-3 v -2.11 c 0,-2 -0.72,-3 -2.55,-3 h -2.38 v 8.14 z"
       style="fill:#263238"
       id="path41" />
    <path
       d="m 260.37,371.5 c 0,2 0.78,3.17 2.57,3.17 1.79,0 2.55,-1.19 2.55,-3.17 v -16.81 h 2.29 v 16.68 c 0,3.33 -1.54,5.56 -4.93,5.56 -3.39,0 -4.9,-2.23 -4.9,-5.56 v -16.68 h 2.42 z"
       style="fill:#263238"
       id="path43" />
    <path
       d="m 279.91,360 v 2 h -2.33 v -2.11 c 0,-2 -0.78,-3.17 -2.57,-3.17 -1.79,0 -2.58,1.19 -2.58,3.17 v 11.61 c 0,2 0.82,3.17 2.58,3.17 1.76,0 2.57,-1.19 2.57,-3.17 v -2.86 h 2.33 v 2.73 c 0,3.33 -1.57,5.53 -5,5.53 -3.43,0 -4.93,-2.2 -4.93,-5.53 V 360 c 0,-3.33 1.57,-5.53 4.93,-5.53 3.36,0 5,2.2 5,5.53 z"
       style="fill:#263238"
       id="path45" />
    <path
       d="m 285.34,376.68 v -19.76 h -4 v -2.23 h 10.55 v 2.23 h -4 v 19.76 z"
       style="fill:#263238"
       id="path47" />
    <path
       d="m 296,354.69 v 22 h -2.45 v -22 z"
       style="fill:#263238"
       id="path49" />
    <path
       d="m 298.31,360 c 0,-3.36 1.67,-5.53 5,-5.53 3.33,0 5.06,2.17 5.06,5.53 v 11.37 c 0,3.33 -1.67,5.53 -5.06,5.53 -3.39,0 -5,-2.2 -5,-5.53 z m 2.42,11.5 c 0,2 0.85,3.17 2.61,3.17 1.76,0 2.61,-1.16 2.61,-3.17 v -11.63 c 0,-2 -0.82,-3.17 -2.61,-3.17 -1.79,0 -2.61,1.19 -2.61,3.17 z"
       style="fill:#263238"
       id="path51" />
    <path
       d="m 312.89,376.68 h -2.2 v -22 h 3.11 l 5.09,15.9 v -15.9 h 2.17 v 22 h -2.55 l -5.62,-17.78 z"
       style="fill:#263238"
       id="path53" />
    <rect
       x="171.72"
       y="337.62"
       width="159.52"
       height="9.5100002"
       style="fill:#f76666"
       id="rect55" />
    <polygon
       points="218.04,347.12 228.66,347.12 234.11,337.62 223.49,337.62 "
       style="fill:#263238"
       id="polygon57" />
    <polygon
       points="326.32,347.12 331.24,347.12 331.24,338.54 "
       style="fill:#263238"
       id="polygon59" />
    <polygon
       points="239.7,347.12 250.32,347.12 255.76,337.62 245.14,337.62 "
       style="fill:#263238"
       id="polygon61" />
    <polygon
       points="196.38,347.12 207.01,347.12 212.45,337.62 201.83,337.62 "
       style="fill:#263238"
       id="polygon63" />
    <polygon
       points="190.8,337.62 180.17,337.62 174.73,347.12 185.35,347.12 "
       style="fill:#263238"
       id="polygon65" />
    <polygon
       points="304.67,347.12 315.29,347.12 320.73,337.62 310.11,337.62 "
       style="fill:#263238"
       id="polygon67" />
    <polygon
       points="261.35,347.12 271.98,347.12 277.42,337.62 266.8,337.62 "
       style="fill:#263238"
       id="polygon69" />
    <polygon
       points="283.01,347.12 293.63,347.12 299.08,337.62 288.45,337.62 "
       style="fill:#263238"
       id="polygon71" />
  </g>
  <g
     id="freepik--Cone--inject-102"
     transform="translate(-9.5,-191.97)">
    <path
       d="M 99.24,357.75 71.92,462.12 h 60.93 L 105.53,357.75 a 3.23,3.23 0 0 0 -6.29,0 z"
       style="fill:#f76666;stroke:#263238;stroke-linecap:round;stroke-linejoin:round"
       id="path74" />
    <polygon
       points="96.74,367.29 71.92,462.12 121.56,462.12 "
       style="fill:#263238;stroke:#263238;stroke-linecap:round;stroke-linejoin:round"
       id="polygon76" />
    <rect
       x="59"
       y="459.82999"
       width="84"
       height="8.5100002"
       rx="4"
       style="fill:#f76666;stroke:#263238;stroke-linecap:round;stroke-linejoin:round"
       id="rect78" />
    <rect
       x="59"
       y="459.82999"
       width="57.990002"
       height="8.5100002"
       rx="4"
       style="fill:#263238;stroke:#263238;stroke-linecap:round;stroke-linejoin:round"
       id="rect80" />
    <polygon
       points="117.22,402.41 87.55,402.41 82.82,420.49 121.95,420.49 "
       style="fill:#ffffff;stroke:#263238;stroke-linecap:round;stroke-linejoin:round"
       id="polygon82" />
    <polygon
       points="105.94,402.41 87.55,402.41 82.82,420.49 110.67,420.49 "
       style="fill:#bababa;stroke:#263238;stroke-linecap:round;stroke-linejoin:round"
       id="polygon84" />
  </g>
</svg>
